<mxfile host="app.diagrams.net" agent="Mozilla/5.0 (Windows NT 10.0; Win64; x64) AppleWebKit/537.36 (KHTML, like Gecko) Chrome/133.0.0.0 Safari/537.36 Edg/133.0.0.0" version="26.0.16">
  <diagram name="Page-1" id="UyleXACMuNepjbhf13bg">
    <mxGraphModel dx="1426" dy="781" grid="1" gridSize="10" guides="1" tooltips="1" connect="1" arrows="1" fold="1" page="1" pageScale="1" pageWidth="850" pageHeight="1100" math="0" shadow="0">
      <root>
        <mxCell id="0" />
        <mxCell id="1" parent="0" />
        <mxCell id="NMK4zdJD5FZN81tARBZl-55" value="" style="rounded=1;whiteSpace=wrap;html=1;fillColor=none;dashed=1;" parent="1" vertex="1">
          <mxGeometry x="225" y="380" width="630" height="120" as="geometry" />
        </mxCell>
        <mxCell id="NMK4zdJD5FZN81tARBZl-14" style="edgeStyle=orthogonalEdgeStyle;rounded=0;orthogonalLoop=1;jettySize=auto;html=1;entryX=0;entryY=0.5;entryDx=0;entryDy=0;" parent="1" source="NMK4zdJD5FZN81tARBZl-1" target="NMK4zdJD5FZN81tARBZl-12" edge="1">
          <mxGeometry relative="1" as="geometry">
            <Array as="points">
              <mxPoint x="160" y="240" />
            </Array>
          </mxGeometry>
        </mxCell>
        <mxCell id="NMK4zdJD5FZN81tARBZl-24" style="edgeStyle=orthogonalEdgeStyle;rounded=0;orthogonalLoop=1;jettySize=auto;html=1;entryX=0;entryY=0.5;entryDx=0;entryDy=0;" parent="1" source="NMK4zdJD5FZN81tARBZl-1" target="NMK4zdJD5FZN81tARBZl-6" edge="1">
          <mxGeometry relative="1" as="geometry">
            <Array as="points">
              <mxPoint x="170" y="320" />
            </Array>
          </mxGeometry>
        </mxCell>
        <mxCell id="NMK4zdJD5FZN81tARBZl-69" value="" style="edgeStyle=orthogonalEdgeStyle;rounded=0;orthogonalLoop=1;jettySize=auto;html=1;" parent="1" source="NMK4zdJD5FZN81tARBZl-1" target="NMK4zdJD5FZN81tARBZl-2" edge="1">
          <mxGeometry relative="1" as="geometry" />
        </mxCell>
        <mxCell id="NMK4zdJD5FZN81tARBZl-1" value="Input image" style="rounded=1;whiteSpace=wrap;html=1;" parent="1" vertex="1">
          <mxGeometry x="120" y="400" width="80" height="80" as="geometry" />
        </mxCell>
        <mxCell id="NMK4zdJD5FZN81tARBZl-40" style="edgeStyle=orthogonalEdgeStyle;rounded=0;orthogonalLoop=1;jettySize=auto;html=1;entryX=0.5;entryY=0;entryDx=0;entryDy=0;" parent="1" source="NMK4zdJD5FZN81tARBZl-2" target="NMK4zdJD5FZN81tARBZl-35" edge="1">
          <mxGeometry relative="1" as="geometry" />
        </mxCell>
        <mxCell id="NMK4zdJD5FZN81tARBZl-66" value="" style="edgeStyle=orthogonalEdgeStyle;rounded=0;orthogonalLoop=1;jettySize=auto;html=1;" parent="1" source="NMK4zdJD5FZN81tARBZl-2" target="NMK4zdJD5FZN81tARBZl-3" edge="1">
          <mxGeometry relative="1" as="geometry" />
        </mxCell>
        <mxCell id="NMK4zdJD5FZN81tARBZl-2" value="HFF" style="rounded=1;whiteSpace=wrap;html=1;" parent="1" vertex="1">
          <mxGeometry x="240" y="400" width="120" height="80" as="geometry" />
        </mxCell>
        <mxCell id="NMK4zdJD5FZN81tARBZl-39" style="edgeStyle=orthogonalEdgeStyle;rounded=0;orthogonalLoop=1;jettySize=auto;html=1;entryX=0.5;entryY=0;entryDx=0;entryDy=0;" parent="1" source="NMK4zdJD5FZN81tARBZl-3" target="NMK4zdJD5FZN81tARBZl-34" edge="1">
          <mxGeometry relative="1" as="geometry" />
        </mxCell>
        <mxCell id="NMK4zdJD5FZN81tARBZl-67" value="" style="edgeStyle=orthogonalEdgeStyle;rounded=0;orthogonalLoop=1;jettySize=auto;html=1;" parent="1" source="NMK4zdJD5FZN81tARBZl-3" target="NMK4zdJD5FZN81tARBZl-4" edge="1">
          <mxGeometry relative="1" as="geometry" />
        </mxCell>
        <mxCell id="NMK4zdJD5FZN81tARBZl-3" value="HFF" style="rounded=1;whiteSpace=wrap;html=1;" parent="1" vertex="1">
          <mxGeometry x="400" y="400" width="120" height="80" as="geometry" />
        </mxCell>
        <mxCell id="NMK4zdJD5FZN81tARBZl-41" style="edgeStyle=orthogonalEdgeStyle;rounded=0;orthogonalLoop=1;jettySize=auto;html=1;entryX=0.5;entryY=0;entryDx=0;entryDy=0;" parent="1" source="NMK4zdJD5FZN81tARBZl-4" target="NMK4zdJD5FZN81tARBZl-33" edge="1">
          <mxGeometry relative="1" as="geometry" />
        </mxCell>
        <mxCell id="NMK4zdJD5FZN81tARBZl-68" value="" style="edgeStyle=orthogonalEdgeStyle;rounded=0;orthogonalLoop=1;jettySize=auto;html=1;" parent="1" source="NMK4zdJD5FZN81tARBZl-4" target="NMK4zdJD5FZN81tARBZl-5" edge="1">
          <mxGeometry relative="1" as="geometry" />
        </mxCell>
        <mxCell id="NMK4zdJD5FZN81tARBZl-4" value="HFF" style="rounded=1;whiteSpace=wrap;html=1;" parent="1" vertex="1">
          <mxGeometry x="560" y="400" width="120" height="80" as="geometry" />
        </mxCell>
        <mxCell id="NMK4zdJD5FZN81tARBZl-42" style="edgeStyle=orthogonalEdgeStyle;rounded=0;orthogonalLoop=1;jettySize=auto;html=1;entryX=0.5;entryY=0;entryDx=0;entryDy=0;" parent="1" source="NMK4zdJD5FZN81tARBZl-5" target="NMK4zdJD5FZN81tARBZl-30" edge="1">
          <mxGeometry relative="1" as="geometry" />
        </mxCell>
        <mxCell id="NMK4zdJD5FZN81tARBZl-5" value="HFF" style="rounded=1;whiteSpace=wrap;html=1;" parent="1" vertex="1">
          <mxGeometry x="720" y="400" width="120" height="80" as="geometry" />
        </mxCell>
        <mxCell id="NMK4zdJD5FZN81tARBZl-16" style="edgeStyle=orthogonalEdgeStyle;rounded=0;orthogonalLoop=1;jettySize=auto;html=1;entryX=0.75;entryY=0;entryDx=0;entryDy=0;" parent="1" source="NMK4zdJD5FZN81tARBZl-6" target="NMK4zdJD5FZN81tARBZl-2" edge="1">
          <mxGeometry relative="1" as="geometry" />
        </mxCell>
        <mxCell id="NMK4zdJD5FZN81tARBZl-25" style="edgeStyle=orthogonalEdgeStyle;rounded=0;orthogonalLoop=1;jettySize=auto;html=1;entryX=0;entryY=0.5;entryDx=0;entryDy=0;" parent="1" source="NMK4zdJD5FZN81tARBZl-6" target="NMK4zdJD5FZN81tARBZl-7" edge="1">
          <mxGeometry relative="1" as="geometry" />
        </mxCell>
        <mxCell id="NMK4zdJD5FZN81tARBZl-6" value="Global Feature Block" style="rounded=1;whiteSpace=wrap;html=1;" parent="1" vertex="1">
          <mxGeometry x="300" y="280" width="60" height="80" as="geometry" />
        </mxCell>
        <mxCell id="NMK4zdJD5FZN81tARBZl-18" style="edgeStyle=orthogonalEdgeStyle;rounded=0;orthogonalLoop=1;jettySize=auto;html=1;entryX=0.75;entryY=0;entryDx=0;entryDy=0;" parent="1" source="NMK4zdJD5FZN81tARBZl-7" target="NMK4zdJD5FZN81tARBZl-3" edge="1">
          <mxGeometry relative="1" as="geometry" />
        </mxCell>
        <mxCell id="NMK4zdJD5FZN81tARBZl-26" style="edgeStyle=orthogonalEdgeStyle;rounded=0;orthogonalLoop=1;jettySize=auto;html=1;entryX=0;entryY=0.5;entryDx=0;entryDy=0;" parent="1" source="NMK4zdJD5FZN81tARBZl-7" target="NMK4zdJD5FZN81tARBZl-9" edge="1">
          <mxGeometry relative="1" as="geometry" />
        </mxCell>
        <mxCell id="NMK4zdJD5FZN81tARBZl-7" value="Global Feature Block" style="rounded=1;whiteSpace=wrap;html=1;" parent="1" vertex="1">
          <mxGeometry x="460" y="280" width="60" height="80" as="geometry" />
        </mxCell>
        <mxCell id="NMK4zdJD5FZN81tARBZl-22" style="edgeStyle=orthogonalEdgeStyle;rounded=0;orthogonalLoop=1;jettySize=auto;html=1;entryX=0.75;entryY=0;entryDx=0;entryDy=0;" parent="1" source="NMK4zdJD5FZN81tARBZl-8" target="NMK4zdJD5FZN81tARBZl-5" edge="1">
          <mxGeometry relative="1" as="geometry" />
        </mxCell>
        <mxCell id="NMK4zdJD5FZN81tARBZl-8" value="Global Feature Block" style="rounded=1;whiteSpace=wrap;html=1;" parent="1" vertex="1">
          <mxGeometry x="780" y="280" width="60" height="80" as="geometry" />
        </mxCell>
        <mxCell id="NMK4zdJD5FZN81tARBZl-20" style="edgeStyle=orthogonalEdgeStyle;rounded=0;orthogonalLoop=1;jettySize=auto;html=1;entryX=0.75;entryY=0;entryDx=0;entryDy=0;" parent="1" source="NMK4zdJD5FZN81tARBZl-9" target="NMK4zdJD5FZN81tARBZl-4" edge="1">
          <mxGeometry relative="1" as="geometry" />
        </mxCell>
        <mxCell id="NMK4zdJD5FZN81tARBZl-27" value="" style="edgeStyle=orthogonalEdgeStyle;rounded=0;orthogonalLoop=1;jettySize=auto;html=1;" parent="1" source="NMK4zdJD5FZN81tARBZl-9" target="NMK4zdJD5FZN81tARBZl-8" edge="1">
          <mxGeometry relative="1" as="geometry" />
        </mxCell>
        <mxCell id="NMK4zdJD5FZN81tARBZl-9" value="Global Feature Block" style="rounded=1;whiteSpace=wrap;html=1;" parent="1" vertex="1">
          <mxGeometry x="620" y="280" width="60" height="80" as="geometry" />
        </mxCell>
        <mxCell id="NMK4zdJD5FZN81tARBZl-21" style="edgeStyle=orthogonalEdgeStyle;rounded=0;orthogonalLoop=1;jettySize=auto;html=1;entryX=0.25;entryY=0;entryDx=0;entryDy=0;" parent="1" source="NMK4zdJD5FZN81tARBZl-10" target="NMK4zdJD5FZN81tARBZl-5" edge="1">
          <mxGeometry relative="1" as="geometry" />
        </mxCell>
        <mxCell id="NMK4zdJD5FZN81tARBZl-10" value="Local Feature Block" style="rounded=1;whiteSpace=wrap;html=1;" parent="1" vertex="1">
          <mxGeometry x="720" y="200" width="60" height="80" as="geometry" />
        </mxCell>
        <mxCell id="NMK4zdJD5FZN81tARBZl-19" style="edgeStyle=orthogonalEdgeStyle;rounded=0;orthogonalLoop=1;jettySize=auto;html=1;entryX=0.25;entryY=0;entryDx=0;entryDy=0;" parent="1" source="NMK4zdJD5FZN81tARBZl-11" target="NMK4zdJD5FZN81tARBZl-4" edge="1">
          <mxGeometry relative="1" as="geometry" />
        </mxCell>
        <mxCell id="NMK4zdJD5FZN81tARBZl-29" value="" style="edgeStyle=orthogonalEdgeStyle;rounded=0;orthogonalLoop=1;jettySize=auto;html=1;" parent="1" source="NMK4zdJD5FZN81tARBZl-11" target="NMK4zdJD5FZN81tARBZl-10" edge="1">
          <mxGeometry relative="1" as="geometry" />
        </mxCell>
        <mxCell id="NMK4zdJD5FZN81tARBZl-11" value="Local Feature Block" style="rounded=1;whiteSpace=wrap;html=1;" parent="1" vertex="1">
          <mxGeometry x="560" y="200" width="60" height="80" as="geometry" />
        </mxCell>
        <mxCell id="NMK4zdJD5FZN81tARBZl-15" style="edgeStyle=orthogonalEdgeStyle;rounded=0;orthogonalLoop=1;jettySize=auto;html=1;entryX=0.25;entryY=0;entryDx=0;entryDy=0;" parent="1" source="NMK4zdJD5FZN81tARBZl-12" target="NMK4zdJD5FZN81tARBZl-2" edge="1">
          <mxGeometry relative="1" as="geometry" />
        </mxCell>
        <mxCell id="NMK4zdJD5FZN81tARBZl-23" style="edgeStyle=orthogonalEdgeStyle;rounded=0;orthogonalLoop=1;jettySize=auto;html=1;entryX=0;entryY=0.5;entryDx=0;entryDy=0;" parent="1" source="NMK4zdJD5FZN81tARBZl-12" target="NMK4zdJD5FZN81tARBZl-13" edge="1">
          <mxGeometry relative="1" as="geometry" />
        </mxCell>
        <mxCell id="NMK4zdJD5FZN81tARBZl-12" value="Local Feature Block" style="rounded=1;whiteSpace=wrap;html=1;" parent="1" vertex="1">
          <mxGeometry x="240" y="200" width="60" height="80" as="geometry" />
        </mxCell>
        <mxCell id="NMK4zdJD5FZN81tARBZl-17" style="edgeStyle=orthogonalEdgeStyle;rounded=0;orthogonalLoop=1;jettySize=auto;html=1;entryX=0.25;entryY=0;entryDx=0;entryDy=0;" parent="1" source="NMK4zdJD5FZN81tARBZl-13" target="NMK4zdJD5FZN81tARBZl-3" edge="1">
          <mxGeometry relative="1" as="geometry" />
        </mxCell>
        <mxCell id="NMK4zdJD5FZN81tARBZl-28" value="" style="edgeStyle=orthogonalEdgeStyle;rounded=0;orthogonalLoop=1;jettySize=auto;html=1;" parent="1" source="NMK4zdJD5FZN81tARBZl-13" target="NMK4zdJD5FZN81tARBZl-11" edge="1">
          <mxGeometry relative="1" as="geometry" />
        </mxCell>
        <mxCell id="NMK4zdJD5FZN81tARBZl-13" value="Local Feature Block" style="rounded=1;whiteSpace=wrap;html=1;" parent="1" vertex="1">
          <mxGeometry x="400" y="200" width="60" height="80" as="geometry" />
        </mxCell>
        <mxCell id="NMK4zdJD5FZN81tARBZl-43" value="" style="edgeStyle=orthogonalEdgeStyle;rounded=0;orthogonalLoop=1;jettySize=auto;html=1;" parent="1" source="NMK4zdJD5FZN81tARBZl-30" target="NMK4zdJD5FZN81tARBZl-31" edge="1">
          <mxGeometry relative="1" as="geometry" />
        </mxCell>
        <mxCell id="NMK4zdJD5FZN81tARBZl-30" value="PPM" style="rounded=1;whiteSpace=wrap;html=1;" parent="1" vertex="1">
          <mxGeometry x="720" y="510" width="120" height="40" as="geometry" />
        </mxCell>
        <mxCell id="NMK4zdJD5FZN81tARBZl-38" value="" style="edgeStyle=orthogonalEdgeStyle;rounded=0;orthogonalLoop=1;jettySize=auto;html=1;" parent="1" source="NMK4zdJD5FZN81tARBZl-31" target="NMK4zdJD5FZN81tARBZl-33" edge="1">
          <mxGeometry relative="1" as="geometry" />
        </mxCell>
        <mxCell id="NMK4zdJD5FZN81tARBZl-52" style="edgeStyle=orthogonalEdgeStyle;rounded=0;orthogonalLoop=1;jettySize=auto;html=1;entryX=1;entryY=0.5;entryDx=0;entryDy=0;" parent="1" source="NMK4zdJD5FZN81tARBZl-31" target="NMK4zdJD5FZN81tARBZl-48" edge="1">
          <mxGeometry relative="1" as="geometry">
            <Array as="points">
              <mxPoint x="780" y="697.5" />
            </Array>
          </mxGeometry>
        </mxCell>
        <mxCell id="NMK4zdJD5FZN81tARBZl-31" value="P4" style="rounded=1;whiteSpace=wrap;html=1;" parent="1" vertex="1">
          <mxGeometry x="720" y="577.5" width="120" height="40" as="geometry" />
        </mxCell>
        <mxCell id="NMK4zdJD5FZN81tARBZl-37" value="" style="edgeStyle=orthogonalEdgeStyle;rounded=0;orthogonalLoop=1;jettySize=auto;html=1;" parent="1" source="NMK4zdJD5FZN81tARBZl-33" target="NMK4zdJD5FZN81tARBZl-34" edge="1">
          <mxGeometry relative="1" as="geometry" />
        </mxCell>
        <mxCell id="NMK4zdJD5FZN81tARBZl-51" style="edgeStyle=orthogonalEdgeStyle;rounded=0;orthogonalLoop=1;jettySize=auto;html=1;entryX=0.5;entryY=0;entryDx=0;entryDy=0;" parent="1" source="NMK4zdJD5FZN81tARBZl-33" target="NMK4zdJD5FZN81tARBZl-47" edge="1">
          <mxGeometry relative="1" as="geometry" />
        </mxCell>
        <mxCell id="NMK4zdJD5FZN81tARBZl-33" value="P4" style="rounded=1;whiteSpace=wrap;html=1;" parent="1" vertex="1">
          <mxGeometry x="560" y="577.5" width="120" height="40" as="geometry" />
        </mxCell>
        <mxCell id="NMK4zdJD5FZN81tARBZl-36" value="" style="edgeStyle=orthogonalEdgeStyle;rounded=0;orthogonalLoop=1;jettySize=auto;html=1;" parent="1" source="NMK4zdJD5FZN81tARBZl-34" target="NMK4zdJD5FZN81tARBZl-35" edge="1">
          <mxGeometry relative="1" as="geometry" />
        </mxCell>
        <mxCell id="NMK4zdJD5FZN81tARBZl-50" style="edgeStyle=orthogonalEdgeStyle;rounded=0;orthogonalLoop=1;jettySize=auto;html=1;entryX=0.5;entryY=0;entryDx=0;entryDy=0;" parent="1" source="NMK4zdJD5FZN81tARBZl-34" target="NMK4zdJD5FZN81tARBZl-46" edge="1">
          <mxGeometry relative="1" as="geometry" />
        </mxCell>
        <mxCell id="NMK4zdJD5FZN81tARBZl-34" value="P4" style="rounded=1;whiteSpace=wrap;html=1;" parent="1" vertex="1">
          <mxGeometry x="400" y="577.5" width="120" height="40" as="geometry" />
        </mxCell>
        <mxCell id="NMK4zdJD5FZN81tARBZl-49" style="edgeStyle=orthogonalEdgeStyle;rounded=0;orthogonalLoop=1;jettySize=auto;html=1;entryX=0;entryY=0.5;entryDx=0;entryDy=0;" parent="1" source="NMK4zdJD5FZN81tARBZl-35" target="NMK4zdJD5FZN81tARBZl-45" edge="1">
          <mxGeometry relative="1" as="geometry">
            <Array as="points">
              <mxPoint x="300" y="697.5" />
            </Array>
          </mxGeometry>
        </mxCell>
        <mxCell id="NMK4zdJD5FZN81tARBZl-35" value="P4" style="rounded=1;whiteSpace=wrap;html=1;" parent="1" vertex="1">
          <mxGeometry x="240" y="577.5" width="120" height="40" as="geometry" />
        </mxCell>
        <mxCell id="NMK4zdJD5FZN81tARBZl-45" value="" style="whiteSpace=wrap;html=1;" parent="1" vertex="1">
          <mxGeometry x="460" y="657.5" width="40" height="80" as="geometry" />
        </mxCell>
        <mxCell id="NMK4zdJD5FZN81tARBZl-46" value="" style="whiteSpace=wrap;html=1;" parent="1" vertex="1">
          <mxGeometry x="500" y="657.5" width="40" height="80" as="geometry" />
        </mxCell>
        <mxCell id="NMK4zdJD5FZN81tARBZl-54" value="" style="edgeStyle=orthogonalEdgeStyle;rounded=0;orthogonalLoop=1;jettySize=auto;html=1;" parent="1" source="NMK4zdJD5FZN81tARBZl-47" target="NMK4zdJD5FZN81tARBZl-53" edge="1">
          <mxGeometry relative="1" as="geometry">
            <Array as="points">
              <mxPoint x="540" y="757.5" />
              <mxPoint x="540" y="757.5" />
            </Array>
          </mxGeometry>
        </mxCell>
        <mxCell id="NMK4zdJD5FZN81tARBZl-47" value="" style="whiteSpace=wrap;html=1;" parent="1" vertex="1">
          <mxGeometry x="540" y="657.5" width="40" height="80" as="geometry" />
        </mxCell>
        <mxCell id="NMK4zdJD5FZN81tARBZl-48" value="" style="whiteSpace=wrap;html=1;" parent="1" vertex="1">
          <mxGeometry x="580" y="657.5" width="40" height="80" as="geometry" />
        </mxCell>
        <mxCell id="NMK4zdJD5FZN81tARBZl-53" value="RetinaNet || DETR&lt;div&gt;Head&lt;/div&gt;" style="rounded=1;whiteSpace=wrap;html=1;" parent="1" vertex="1">
          <mxGeometry x="480" y="777.5" width="120" height="80" as="geometry" />
        </mxCell>
        <mxCell id="NMK4zdJD5FZN81tARBZl-56" value="" style="rounded=1;whiteSpace=wrap;html=1;fillColor=none;dashed=1;" parent="1" vertex="1">
          <mxGeometry x="220" y="560" width="630" height="75" as="geometry" />
        </mxCell>
        <mxCell id="NMK4zdJD5FZN81tARBZl-57" value="" style="rounded=1;whiteSpace=wrap;html=1;fillColor=none;dashed=1;" parent="1" vertex="1">
          <mxGeometry x="225" y="190" width="630" height="180" as="geometry" />
        </mxCell>
        <mxCell id="NMK4zdJD5FZN81tARBZl-60" value="Local and Global feature extraction" style="text;html=1;align=center;verticalAlign=middle;resizable=0;points=[];autosize=1;strokeColor=none;fillColor=none;" parent="1" vertex="1">
          <mxGeometry x="870" y="265" width="210" height="30" as="geometry" />
        </mxCell>
        <mxCell id="NMK4zdJD5FZN81tARBZl-61" value="Hierarchical Feature Fusion" style="text;html=1;align=center;verticalAlign=middle;resizable=0;points=[];autosize=1;strokeColor=none;fillColor=none;" parent="1" vertex="1">
          <mxGeometry x="870" y="425" width="170" height="30" as="geometry" />
        </mxCell>
        <mxCell id="NMK4zdJD5FZN81tARBZl-62" value="FPN" style="text;html=1;align=center;verticalAlign=middle;resizable=0;points=[];autosize=1;strokeColor=none;fillColor=none;" parent="1" vertex="1">
          <mxGeometry x="870" y="582.5" width="50" height="30" as="geometry" />
        </mxCell>
      </root>
    </mxGraphModel>
  </diagram>
</mxfile>
